<svg width="32" height="32" viewBox="0 0 32 32" fill="none" xmlns="http://www.w3.org/2000/svg">
<g id="arrow-right">
<g id="Icon">
<path fill-rule="evenodd" clip-rule="evenodd" d="M26.6667 16.0002C26.6667 15.2638 26.0698 14.6668 25.3334 14.6668H6.66675C5.93037 14.6668 5.33342 15.2638 5.33342 16.0002C5.33342 16.7365 5.93037 17.3335 6.66675 17.3335H25.3334C26.0698 17.3335 26.6667 16.7365 26.6667 16.0002Z" fill="white"/>
<path fill-rule="evenodd" clip-rule="evenodd" d="M16.9429 5.72402C16.4222 5.20332 15.578 5.20332 15.0573 5.72402L5.72394 15.0574C5.20324 15.5781 5.20324 16.4223 5.72394 16.943L15.0573 26.2763C15.578 26.797 16.4222 26.797 16.9429 26.2763C17.4636 25.7556 17.4636 24.9114 16.9429 24.3907L8.55237 16.0002L16.9429 7.60964C17.4636 7.08894 17.4636 6.24472 16.9429 5.72402Z" fill="white"/>
</g>
</g>
</svg>
