<svg width="32" height="32" viewBox="0 0 32 32" fill="none" xmlns="http://www.w3.org/2000/svg">
<path fill-rule="evenodd" clip-rule="evenodd" d="M5.33325 16.0002C5.33325 15.2638 5.93021 14.6668 6.66659 14.6668H25.3333C26.0696 14.6668 26.6666 15.2638 26.6666 16.0002C26.6666 16.7365 26.0696 17.3335 25.3333 17.3335H6.66659C5.93021 17.3335 5.33325 16.7365 5.33325 16.0002Z" fill="white"/>
<path fill-rule="evenodd" clip-rule="evenodd" d="M15.0571 5.72402C15.5778 5.20332 16.422 5.20332 16.9427 5.72402L26.2761 15.0574C26.7968 15.5781 26.7968 16.4223 26.2761 16.943L16.9427 26.2763C16.422 26.797 15.5778 26.797 15.0571 26.2763C14.5364 25.7556 14.5364 24.9114 15.0571 24.3907L23.4476 16.0002L15.0571 7.60964C14.5364 7.08894 14.5364 6.24472 15.0571 5.72402Z" fill="white"/>
</svg>
