<svg width="25" height="24" viewBox="0 0 25 24" fill="none" xmlns="http://www.w3.org/2000/svg">
<g id="Frame">
<path id="Vector" d="M4.57619 20.9759C3.72502 20.9759 2.99994 20.6741 2.40094 20.0704C1.80194 19.4666 1.50244 18.7438 1.50244 17.9022V6.09767C1.50244 5.25601 1.80194 4.53326 2.40094 3.92943C2.99994 3.32576 3.72502 3.02393 4.57619 3.02393H20.4242C21.2754 3.02393 22.0004 3.32576 22.5994 3.92943C23.1984 4.53326 23.4979 5.25601 23.4979 6.09767V17.9022C23.4979 18.7438 23.1984 19.4666 22.5994 20.0704C22.0004 20.6741 21.2754 20.9759 20.4242 20.9759H4.57619ZM12.5002 13.7032C12.6452 13.7032 12.782 13.6842 12.9107 13.6462C13.0394 13.6082 13.1699 13.5464 13.3024 13.4609L19.8844 9.26418C20.0254 9.18218 20.1506 9.04901 20.2599 8.86468C20.3694 8.68018 20.4242 8.47893 20.4242 8.26093C20.4242 7.82026 20.2244 7.48034 19.8247 7.24118C19.425 7.00201 19.0194 7.01326 18.6077 7.27493L12.5002 11.1694L6.39269 7.27493C5.99052 7.02276 5.58719 7.00792 5.18269 7.23042C4.77836 7.45292 4.57619 7.79968 4.57619 8.27068C4.57619 8.49884 4.63094 8.70101 4.74044 8.87718C4.84977 9.05318 4.97586 9.18284 5.11869 9.26618L11.6979 13.4609C11.8304 13.5464 11.961 13.6082 12.0897 13.6462C12.2184 13.6842 12.3552 13.7032 12.5002 13.7032Z" fill="#19887F"/>
</g>
</svg>
