<svg xmlns="http://www.w3.org/2000/svg" width="160" height="29" viewBox="0 0 160 29" fill="none">
  <path d="M26.278 18.8789C27.5011 19.095 28.6984 18.2778 28.9523 17.0537C29.2062 15.8295 28.4206 14.662 27.1975 14.4458L20.3062 13.2282L26.2681 9.15908C27.3125 8.44628 27.6036 7.04285 26.9183 6.02442C26.233 5.006 24.8309 4.75824 23.7865 5.47104L17.8244 9.54022L19.2551 2.64249C19.509 1.41834 18.7234 0.250764 17.5003 0.0346522C16.2773 -0.18146 15.08 0.635725 14.826 1.85988L13.422 8.62918L9.61148 2.96632C8.9262 1.9479 7.52403 1.70013 6.47965 2.41293C5.43527 3.12572 5.14417 4.52916 5.82946 5.54758L9.74151 11.3614L2.72197 10.1211C1.49892 9.90495 0.301589 10.7221 0.0476738 11.9463C-0.206241 13.1704 0.579404 14.338 1.80246 14.5541L8.69395 15.7718L2.88663 19.7354C1.84226 20.4482 1.55115 21.8516 2.23644 22.87C2.92173 23.8885 4.3239 24.1362 5.36827 23.4234L11.1754 19.46L9.74476 26.3575C9.49084 27.5817 10.2765 28.7492 11.4995 28.9653C12.7226 29.1815 13.9199 28.3643 14.1738 27.1401L15.6312 20.1142L19.5433 25.9281C20.2286 26.9465 21.6307 27.1943 22.6751 26.4815C23.7195 25.7687 24.0106 24.3653 23.3253 23.3468L19.5148 17.6839L26.278 18.8789Z" fill="#19887F"/>
  <path d="M46.4293 28.6144H41V0.925531H46.4293V28.6144Z" fill="#0C0C0C"/>
  <path d="M59.6399 29C53.6289 29 49.1303 24.2952 49.1303 18.3178C49.1303 12.3019 53.6289 7.63564 59.6399 7.63564C65.6509 7.63564 70.1494 12.3019 70.1494 18.3178C70.1494 24.2952 65.6509 29 59.6399 29ZM59.6399 24.2566C62.3157 24.2566 64.6038 22.1356 64.6038 18.3178C64.6038 14.5 62.3157 12.4176 59.6399 12.4176C56.964 12.4176 54.6759 14.5 54.6759 18.3178C54.6759 22.1356 56.964 24.2566 59.6399 24.2566Z" fill="#0C0C0C"/>
  <path d="M85.4175 19.9375V8.02128H90.7692V28.6144H85.8441V25.9149C84.7194 27.7274 82.4314 29 79.7943 29C75.6448 29 72.6199 26.4934 72.6199 21.133V8.02128H78.0104V20.0918C78.0104 22.984 79.4453 24.2566 81.617 24.2566C83.556 24.2566 85.4175 22.7141 85.4175 19.9375Z" fill="#0C0C0C"/>
  <path d="M101.081 3.23936C101.081 5.05186 99.607 6.4016 97.474 6.4016C95.3799 6.4016 93.9062 5.05186 93.9062 3.23936C93.9062 1.34974 95.3799 0 97.474 0C99.607 0 101.081 1.34974 101.081 3.23936ZM100.227 28.6144H94.837V8.02128H100.227V28.6144Z" fill="#0C0C0C"/>
  <path d="M121.739 22.0199C121.739 26.3391 118.443 29 112.548 29C106.653 29 103.357 26.1848 102.93 21.5957H108.088C108.127 23.7168 109.95 25.0665 112.625 25.0665C114.72 25.0665 116.31 24.4109 116.31 22.9455C116.31 21.6343 115.456 21.0944 113.479 20.7088L109.756 20.0146C106.033 19.359 103.783 17.3152 103.783 14.1144C103.783 10.2965 107.08 7.63564 112.238 7.63564C117.434 7.63564 121.002 10.3737 121.39 14.8085H116.232C116.038 12.8032 114.526 11.5691 112.238 11.5691C110.26 11.5691 108.941 12.3019 108.941 13.613C108.941 14.8471 109.794 15.3484 111.656 15.6955L115.65 16.4282C119.684 17.1995 121.739 19.0505 121.739 22.0199Z" fill="#0C0C0C"/>
  <path d="M133.796 29C127.785 29 123.286 24.2952 123.286 18.3178C123.286 12.3019 127.785 7.63564 133.796 7.63564C139.807 7.63564 144.305 12.3019 144.305 18.3178C144.305 24.2952 139.807 29 133.796 29ZM133.796 24.2566C136.472 24.2566 138.76 22.1356 138.76 18.3178C138.76 14.5 136.472 12.4176 133.796 12.4176C131.12 12.4176 128.832 14.5 128.832 18.3178C128.832 22.1356 131.12 24.2566 133.796 24.2566Z" fill="#0C0C0C"/>
  <path d="M152.36 18.6263V28.6144H146.97V8.02128H151.934V11.9934C153.446 9.37101 156.665 7.78989 160 7.78989V13.3431C155.424 12.996 152.36 14.0758 152.36 18.6263Z" fill="#0C0C0C"/>
</svg>