<svg width="25" height="24" viewBox="0 0 25 24" fill="none" xmlns="http://www.w3.org/2000/svg">
<g id="Frame">
<path id="Vector" d="M20.9956 21.9977C18.6904 21.9977 16.4283 21.512 14.2091 20.5407C11.9899 19.5694 9.97203 18.18 8.15536 16.3727C6.3387 14.5727 4.94461 12.5543 3.97311 10.3174C3.00178 8.08045 2.51611 5.81411 2.51611 3.51845C2.51611 3.06261 2.65253 2.69595 2.92536 2.41845C3.1982 2.14095 3.56253 2.0022 4.01836 2.0022H8.66511C9.11511 2.0022 9.49245 2.12136 9.79711 2.3597C10.1019 2.5982 10.3029 2.9247 10.3999 3.3392L11.1076 7.02395C11.1691 7.40795 11.1584 7.74578 11.0754 8.03745C10.9924 8.32911 10.8397 8.57203 10.6174 8.7662L7.96736 11.2684C8.24636 11.7503 8.58128 12.2291 8.97211 12.7049C9.36311 13.1806 9.81003 13.6699 10.3129 14.1727C10.7752 14.6184 11.227 15.0213 11.6684 15.3814C12.1097 15.7416 12.5452 16.0518 12.9749 16.3119L15.6966 13.7184C15.9336 13.4814 16.1943 13.3238 16.4786 13.2454C16.7631 13.1673 17.0734 13.1637 17.4096 13.2347L21.1389 14.0574C21.5607 14.1806 21.8926 14.3792 22.1346 14.6532C22.3766 14.927 22.4976 15.2712 22.4976 15.6857V20.4814C22.4976 20.9373 22.3589 21.3039 22.0814 21.5814C21.8039 21.8589 21.4419 21.9977 20.9956 21.9977Z" fill="#19887F"/>
</g>
</svg>
