<svg width="42" height="28" viewBox="0 0 42 28" fill="none" xmlns="http://www.w3.org/2000/svg">
<path id="&#226;&#128;&#156;" d="M0 17.2649C0 8.44679 7.02089 -0.371326 18.4298 0.0120654V5.25182C11.7851 5.25182 7.14627 9.34138 6.5194 14.8367C7.52239 14.3255 8.52537 14.1977 9.40298 14.1977C13.4149 14.1977 16.2985 17.1371 16.2985 20.9711C16.2985 25.1884 13.0388 28 8.77612 28C3.00895 28 0 23.3992 0 17.2649ZM23.5701 17.2649C23.5701 8.44679 30.591 -0.371326 42 0.0120654V5.25182C35.3552 5.25182 30.7164 9.34138 30.0896 14.8367C31.0925 14.3255 32.0955 14.1977 33.0985 14.1977C36.9851 14.1977 39.8687 17.1371 39.8687 20.9711C39.8687 25.1884 36.7343 28 32.3463 28C26.5791 28 23.5701 23.3992 23.5701 17.2649Z" fill="#0C0C0C"/>
</svg>
