<svg width="20" height="20" viewBox="0 0 20 20" fill="none" xmlns="http://www.w3.org/2000/svg">
<g id="Vector">
<path d="M18.1228 13.0199C18.9663 13.169 19.792 12.6054 19.9671 11.7612C20.1422 10.9169 19.6004 10.1117 18.7569 9.96265L14.0043 9.12287L18.116 6.31661C18.8362 5.82502 19.037 4.85714 18.5644 4.15478C18.0917 3.45241 17.1247 3.28154 16.4045 3.77313L12.2927 6.57946L13.2794 1.82241C13.4545 0.978166 12.9127 0.172941 12.0692 0.0238981C11.2257 -0.125145 10.4 0.438431 10.2249 1.28268L9.25652 5.95116L6.62861 2.04574C6.156 1.34338 5.18899 1.1725 4.46872 1.66409C3.74846 2.15567 3.54771 3.12356 4.02032 3.82592L6.71829 7.83545L1.87722 6.98004C1.03373 6.831 0.207993 7.39457 0.0328785 8.23882C-0.142235 9.08307 0.399589 9.88829 1.24308 10.0373L5.99582 10.8771L1.99078 13.6106C1.27052 14.1022 1.06976 15.0701 1.54237 15.7724C2.01499 16.4748 2.982 16.6457 3.70226 16.1541L7.7072 13.4207L6.72052 18.1776C6.54541 19.0218 7.08723 19.8271 7.93072 19.9761C8.77421 20.1251 9.59994 19.5616 9.77506 18.7173L10.7801 13.8718L13.4781 17.8814C13.9507 18.5838 14.9178 18.7547 15.638 18.2631C16.3583 17.7715 16.559 16.8036 16.0864 16.1013L13.4584 12.1958L18.1228 13.0199Z" fill="#19887F"/>
</g>
</svg>
