<svg width="716" height="716" viewBox="0 0 716 716" fill="none" xmlns="http://www.w3.org/2000/svg">
<path d="M648.796 466.114C678.992 471.45 708.554 451.274 714.823 421.05C721.092 390.826 701.695 361.999 671.498 356.663L501.353 326.599L648.551 226.134C674.336 208.536 681.524 173.886 664.604 148.741C647.685 123.596 613.066 117.479 587.28 135.078L440.078 235.545L475.402 65.2422C481.671 35.0183 462.274 6.19129 432.077 0.855552C401.88 -4.48018 372.319 15.6958 366.05 45.9199L331.384 213.051L237.304 73.2374C220.385 48.0929 185.766 41.9756 159.98 59.5743C134.195 77.173 127.008 111.823 143.927 136.968L240.515 280.509L67.2045 249.885C37.0077 244.55 7.44613 264.726 1.17705 294.95C-5.09201 325.174 14.3053 354.001 44.5021 359.336L214.651 389.401L71.27 487.26C45.4847 504.859 38.2975 539.509 55.217 564.653C72.1365 589.798 106.756 595.915 132.541 578.316L275.918 480.46L240.595 650.758C234.326 680.982 253.723 709.809 283.92 715.144C314.117 720.48 343.678 700.304 349.947 670.08L385.928 496.612L482.517 640.156C499.436 665.3 534.056 671.418 559.841 653.819C585.626 636.22 592.813 601.57 575.894 576.425L481.812 436.608L648.796 466.114Z" fill="#19887F"/>
</svg>
