<svg width="481" height="467" viewBox="0 0 481 467" fill="none" xmlns="http://www.w3.org/2000/svg">
<path d="M648.796 217.114C678.992 222.45 708.554 202.274 714.823 172.05C721.092 141.826 701.695 112.999 671.498 107.663L501.353 77.5986L648.551 -22.8655C674.336 -40.4642 681.524 -75.1145 664.604 -100.259C647.685 -125.404 613.065 -131.521 587.28 -113.922L440.078 -13.4554L475.402 -183.758C481.671 -213.982 462.274 -242.809 432.077 -248.144C401.88 -253.48 372.319 -233.304 366.05 -203.08L331.384 -35.9485L237.304 -175.763C220.385 -200.907 185.766 -207.024 159.98 -189.426C134.195 -171.827 127.008 -137.177 143.927 -112.032L240.515 31.509L67.2045 0.885437C37.0077 -4.45027 7.44613 15.7256 1.17705 45.9497C-5.09201 76.1738 14.3053 105.001 44.5021 110.336L214.651 140.401L71.27 238.26C45.4847 255.859 38.2975 290.509 55.217 315.653C72.1365 340.798 106.756 346.915 132.541 329.316L275.918 231.46L240.595 401.758C234.326 431.982 253.723 460.809 283.92 466.144C314.117 471.48 343.678 451.304 349.947 421.08L385.928 247.612L482.517 391.156C499.436 416.3 534.056 422.418 559.841 404.819C585.626 387.22 592.813 352.57 575.894 327.425L481.812 187.608L648.796 217.114Z" fill="#19887F"/>
</svg>
